<svg data-v-423bf9ae="" xmlns="http://www.w3.org/2000/svg" viewBox="0 0 553 90" class="iconLeft"><!----><defs data-v-423bf9ae=""><linearGradient data-v-423bf9ae="" gradientTransform="rotate(25)" id="07126bb2-0733-43ad-a28c-7ab1ebb1d4b4" x1="0%" y1="0%" x2="100%" y2="0%"><stop data-v-423bf9ae="" offset="0%" style="stop-color: rgb(13, 33, 117); stop-opacity: 1;"></stop><stop data-v-423bf9ae="" offset="100%" style="stop-color: rgb(31, 30, 251); stop-opacity: 1;"></stop></linearGradient></defs><!----><g data-v-423bf9ae="" id="f2506251-cb85-41b2-944e-c60e713e36de" fill="#ffffff" transform="matrix(4.705882352941177,0,0,4.705882352941177,103.6470638513565,1.870587461134967)"><path d="M1.35 12.61L1.35 2.95L7.69 2.95L7.69 4.19L2.74 4.19L2.74 7.16L7.18 7.16L7.18 8.39L2.74 8.39L2.74 11.31L7.69 11.31L7.69 12.61L1.35 12.61ZM11.15 12.74Q10.47 12.74 9.94 12.49Q9.41 12.24 9.11 11.75Q8.81 11.27 8.81 10.61L8.81 10.61Q8.81 9.58 9.56 9.10Q10.31 8.62 11.68 8.62L11.68 8.62L13.34 8.62Q13.34 7.77 12.97 7.28Q12.59 6.79 11.82 6.79L11.82 6.79Q11.22 6.79 10.78 7.07Q10.34 7.36 10.06 7.79L10.06 7.79L9.07 7.05Q9.56 6.36 10.23 6.00Q10.90 5.63 11.79 5.63L11.79 5.63Q12.67 5.63 13.30 5.98Q13.93 6.34 14.26 6.97Q14.59 7.60 14.59 8.44L14.59 8.44L14.59 12.61L13.49 12.61L13.42 11.45Q13.04 12.13 12.45 12.43Q11.87 12.74 11.15 12.74L11.15 12.74ZM11.32 11.62Q11.89 11.62 12.35 11.33Q12.81 11.03 13.07 10.56Q13.34 10.10 13.34 9.60L13.34 9.60L11.78 9.60Q10.98 9.60 10.58 9.86Q10.17 10.13 10.17 10.65L10.17 10.65Q10.17 11.12 10.48 11.37Q10.79 11.62 11.32 11.62L11.32 11.62ZM18.53 12.74Q17.87 12.74 17.31 12.50Q16.75 12.26 16.37 11.85Q15.99 11.44 15.83 10.94L15.83 10.94L16.91 10.44Q17.09 10.97 17.47 11.31Q17.86 11.65 18.49 11.65L18.49 11.65Q19.06 11.65 19.39 11.38Q19.72 11.10 19.72 10.67L19.72 10.67Q19.72 10.36 19.53 10.15Q19.34 9.95 19.05 9.83Q18.76 9.71 18.25 9.56L18.25 9.56Q17.59 9.37 17.18 9.18Q16.77 8.99 16.48 8.62Q16.19 8.24 16.19 7.64L16.19 7.64Q16.19 7 16.51 6.55Q16.82 6.09 17.36 5.86Q17.89 5.63 18.53 5.63L18.53 5.63Q19.34 5.63 19.96 6.01Q20.58 6.38 20.93 7.05L20.93 7.05L19.93 7.61Q19.45 6.69 18.48 6.69L18.48 6.69Q18.01 6.69 17.72 6.90Q17.43 7.12 17.43 7.46L17.43 7.46Q17.43 7.72 17.61 7.90Q17.79 8.08 18.05 8.19Q18.32 8.29 18.81 8.44L18.81 8.44Q19.50 8.65 19.94 8.86Q20.38 9.06 20.70 9.48Q21.01 9.89 21.01 10.56L21.01 10.56Q21.01 11.27 20.66 11.76Q20.31 12.26 19.74 12.50Q19.17 12.74 18.53 12.74L18.53 12.74ZM23.00 15.54L24.21 12.50L21.56 5.78L23.02 5.78L24.89 10.96L26.74 5.78L28.19 5.78L24.42 15.54L23.00 15.54ZM37.04 12.74Q35.57 12.74 34.56 12.08Q33.55 11.41 33.06 10.28Q32.56 9.15 32.56 7.77L32.56 7.77Q32.56 6.38 33.05 5.26Q33.54 4.13 34.56 3.46Q35.58 2.79 37.08 2.79L37.08 2.79Q38.49 2.79 39.53 3.46Q40.57 4.14 41.10 5.46L41.10 5.46L39.82 5.99Q39.55 5.00 38.80 4.55Q38.06 4.10 37.04 4.10L37.04 4.10Q35.98 4.10 35.29 4.59Q34.59 5.07 34.26 5.89Q33.93 6.71 33.93 7.72L33.93 7.72Q33.93 8.78 34.27 9.62Q34.60 10.45 35.30 10.94Q36.00 11.44 37.07 11.44L37.07 11.44Q38.06 11.44 38.75 10.99Q39.45 10.54 39.84 9.53L39.84 9.53L41.12 10.07Q40.56 11.36 39.50 12.05Q38.45 12.74 37.04 12.74L37.04 12.74ZM44.14 12.74Q43.46 12.74 42.93 12.49Q42.40 12.24 42.10 11.75Q41.80 11.27 41.80 10.61L41.80 10.61Q41.80 9.58 42.55 9.10Q43.30 8.62 44.67 8.62L44.67 8.62L46.33 8.62Q46.33 7.77 45.96 7.28Q45.58 6.79 44.81 6.79L44.81 6.79Q44.21 6.79 43.77 7.07Q43.33 7.36 43.05 7.79L43.05 7.79L42.06 7.05Q42.55 6.36 43.22 6.00Q43.89 5.63 44.78 5.63L44.78 5.63Q45.66 5.63 46.29 5.98Q46.92 6.34 47.25 6.97Q47.58 7.60 47.58 8.44L47.58 8.44L47.58 12.61L46.48 12.61L46.41 11.45Q46.03 12.13 45.44 12.43Q44.86 12.74 44.14 12.74L44.14 12.74ZM44.31 11.62Q44.88 11.62 45.34 11.33Q45.80 11.03 46.06 10.56Q46.33 10.10 46.33 9.60L46.33 9.60L44.77 9.60Q43.97 9.60 43.57 9.86Q43.16 10.13 43.16 10.65L43.16 10.65Q43.16 11.12 43.47 11.37Q43.78 11.62 44.31 11.62L44.31 11.62ZM50.77 12.74Q50.10 12.74 49.81 12.37Q49.51 12.00 49.51 11.24L49.51 11.24L49.51 2.95L50.84 2.95L50.84 11.15Q50.84 11.27 50.94 11.42Q51.05 11.57 51.28 11.57L51.28 11.57Q51.58 11.57 51.84 11.51L51.84 11.51L51.84 12.61Q51.61 12.66 51.32 12.70Q51.03 12.74 50.77 12.74L50.77 12.74ZM55.83 12.74Q54.82 12.74 54.12 12.25Q53.42 11.76 53.06 10.95Q52.71 10.14 52.71 9.20L52.71 9.20Q52.71 8.26 53.06 7.45Q53.41 6.63 54.11 6.13Q54.82 5.63 55.82 5.63L55.82 5.63Q56.79 5.63 57.51 6.13Q58.24 6.62 58.61 7.54L58.61 7.54L57.36 8.05Q57.21 7.49 56.80 7.14Q56.38 6.80 55.82 6.80L55.82 6.80Q55.21 6.80 54.81 7.15Q54.41 7.50 54.23 8.04Q54.05 8.59 54.05 9.20L54.05 9.20Q54.05 9.82 54.23 10.36Q54.41 10.90 54.80 11.24Q55.20 11.58 55.82 11.58L55.82 11.58Q56.38 11.58 56.79 11.25Q57.21 10.91 57.36 10.36L57.36 10.36L58.54 10.83Q58.21 11.73 57.50 12.24Q56.79 12.74 55.83 12.74L55.83 12.74ZM62.15 12.75Q60.92 12.75 60.32 11.89Q59.73 11.04 59.73 9.57L59.73 9.57L59.73 5.78L61.07 5.78L61.07 9.63Q61.07 10.53 61.36 11.06Q61.65 11.59 62.41 11.59L62.41 11.59Q62.90 11.59 63.31 11.33Q63.73 11.07 63.98 10.54Q64.23 10.01 64.23 9.23L64.23 9.23L64.23 5.78L65.56 5.78L65.56 12.61L64.23 12.61L64.23 11.61Q63.93 12.11 63.38 12.43Q62.82 12.75 62.15 12.75L62.15 12.75ZM68.94 12.74Q68.27 12.74 67.98 12.37Q67.68 12.00 67.68 11.24L67.68 11.24L67.68 2.95L69.01 2.95L69.01 11.15Q69.01 11.27 69.11 11.42Q69.22 11.57 69.45 11.57L69.45 11.57Q69.75 11.57 70.01 11.51L70.01 11.51L70.01 12.61Q69.78 12.66 69.49 12.70Q69.20 12.74 68.94 12.74L68.94 12.74ZM73.12 12.74Q72.45 12.74 71.92 12.49Q71.39 12.24 71.09 11.75Q70.79 11.27 70.79 10.61L70.79 10.61Q70.79 9.58 71.53 9.10Q72.28 8.62 73.66 8.62L73.66 8.62L75.32 8.62Q75.32 7.77 74.94 7.28Q74.57 6.79 73.79 6.79L73.79 6.79Q73.19 6.79 72.75 7.07Q72.32 7.36 72.04 7.79L72.04 7.79L71.05 7.05Q71.54 6.36 72.20 6.00Q72.87 5.63 73.76 5.63L73.76 5.63Q74.64 5.63 75.27 5.98Q75.91 6.34 76.23 6.97Q76.56 7.60 76.56 8.44L76.56 8.44L76.56 12.61L75.46 12.61L75.39 11.45Q75.01 12.13 74.43 12.43Q73.84 12.74 73.12 12.74L73.12 12.74ZM73.29 11.62Q73.87 11.62 74.33 11.33Q74.79 11.03 75.05 10.56Q75.31 10.10 75.32 9.60L75.32 9.60L73.75 9.60Q72.95 9.60 72.55 9.86Q72.15 10.13 72.15 10.65L72.15 10.65Q72.15 11.12 72.46 11.37Q72.77 11.62 73.29 11.62L73.29 11.62ZM80.64 12.74Q79.71 12.74 79.24 12.22Q78.76 11.69 78.76 10.76L78.76 10.76L78.76 6.88L77.66 6.88L77.66 5.78L78.78 5.78L78.78 4.16L80.08 3.10L80.08 5.78L81.81 5.78L81.81 6.88L80.08 6.88L80.08 10.62Q80.08 11.13 80.30 11.37Q80.53 11.61 80.90 11.61L80.90 11.61Q81.09 11.61 81.31 11.55Q81.53 11.48 81.71 11.40L81.71 11.40L81.71 12.57Q81.55 12.64 81.25 12.69Q80.96 12.74 80.64 12.74L80.64 12.74ZM86.07 12.74Q85.09 12.74 84.32 12.26Q83.56 11.78 83.14 10.96Q82.71 10.14 82.71 9.17L82.71 9.17Q82.71 8.20 83.14 7.39Q83.56 6.58 84.32 6.11Q85.09 5.63 86.07 5.63L86.07 5.63Q87.05 5.63 87.82 6.11Q88.59 6.58 89.01 7.40Q89.44 8.21 89.44 9.17L89.44 9.17Q89.44 10.14 89.01 10.96Q88.59 11.78 87.82 12.26Q87.05 12.74 86.07 12.74L86.07 12.74ZM86.08 11.62Q86.75 11.62 87.20 11.28Q87.64 10.94 87.86 10.38Q88.07 9.83 88.07 9.17L88.07 9.17Q88.07 8.52 87.86 7.97Q87.64 7.42 87.20 7.09Q86.75 6.76 86.08 6.76L86.08 6.76Q85.41 6.76 84.96 7.09Q84.51 7.42 84.30 7.97Q84.08 8.52 84.08 9.17L84.08 9.17Q84.08 9.83 84.30 10.39Q84.51 10.94 84.96 11.28Q85.42 11.62 86.08 11.62L86.08 11.62ZM91 12.61L91 5.78L92.30 5.78L92.30 6.96Q92.54 6.34 93.07 5.99Q93.60 5.63 94.23 5.63L94.23 5.63Q94.57 5.63 94.87 5.74Q95.18 5.85 95.40 6.05L95.40 6.05L94.81 7.16Q94.48 6.91 94.02 6.91L94.02 6.91Q93.52 6.91 93.13 7.20Q92.74 7.49 92.51 8.05Q92.29 8.62 92.29 9.44L92.29 9.44L92.29 12.61L91 12.61Z"></path></g><!----><g data-v-423bf9ae="" id="5735a765-4b8c-40b8-935c-26fce8ce432d" transform="matrix(2.8125,0,0,2.8125,0,0)" stroke="none" fill="#ffffff"><circle cx="16" cy="16.021" r="8.066"></circle><path d="M32 0H0v32h32V0zM16 26.086c-5.551 0-10.066-4.516-10.066-10.065 0-5.55 4.516-10.066 10.066-10.066 5.55 0 10.065 4.516 10.065 10.066.001 5.55-4.515 10.065-10.065 10.065z"></path></g><!----></svg>