<svg data-v-fde0c5aa="" xmlns="http://www.w3.org/2000/svg" viewBox="0 0 300 300" class="iconLeft"><!----><defs data-v-fde0c5aa=""><!----></defs><rect data-v-fde0c5aa="" fill="transparent" x="0" y="0" width="300px" height="300px" class="logo-background-square"></rect><defs data-v-fde0c5aa=""><!----></defs><g data-v-fde0c5aa="" id="de2835ae-0f4e-49cd-9311-52829f577174" fill="#000000" transform="matrix(1.8415551109647443,0,0,1.8415551109647443,89.3799194520835,131.66731944990642)"><path d="M1.08 13.51L1.08 3.71L7.35 3.71L7.35 5.45L2.91 5.45L2.91 7.53L6.36 7.53L6.36 9.27L2.91 9.27L2.91 11.77L7.49 11.77L7.49 13.51L1.08 13.51ZM10.28 13.65Q9.41 13.65 8.83 13.08Q8.25 12.52 8.25 11.55L8.25 11.55Q8.25 10.64 8.90 10.09Q9.56 9.53 10.46 9.30Q11.35 9.07 12.18 9.04L12.18 9.04Q12.15 8.43 11.87 8.16Q11.58 7.90 10.92 7.90L10.92 7.90Q10.46 7.90 10.02 8.02Q9.58 8.15 9.00 8.43L9.00 8.43L8.85 7.01Q10.12 6.40 11.40 6.40L11.40 6.40Q12.63 6.40 13.28 7.07Q13.93 7.74 13.93 9.21L13.93 9.21L13.93 11.10Q13.93 11.63 13.98 11.87Q14.03 12.10 14.15 12.16Q14.27 12.22 14.55 12.22L14.55 12.22L14.77 12.22L14.62 13.65L13.99 13.65Q13.41 13.65 13.02 13.43Q12.63 13.22 12.42 12.84L12.42 12.84Q12.08 13.22 11.50 13.43Q10.92 13.65 10.28 13.65L10.28 13.65ZM11.00 12.32Q11.27 12.32 11.61 12.19Q11.94 12.05 12.19 11.82L12.19 11.82L12.19 10.22Q11.35 10.26 10.71 10.58Q10.07 10.91 10.07 11.48L10.07 11.48Q10.07 11.91 10.29 12.12Q10.51 12.32 11.00 12.32L11.00 12.32ZM17.72 13.65Q17.05 13.65 16.50 13.52Q15.95 13.40 15.36 13.13L15.36 13.13L15.51 11.65Q16.10 12.00 16.61 12.17Q17.12 12.35 17.67 12.35L17.67 12.35Q18.73 12.35 18.73 11.65L18.73 11.65Q18.73 11.27 18.45 11.07Q18.17 10.86 17.44 10.58L17.44 10.58Q16.41 10.21 15.92 9.72Q15.43 9.24 15.43 8.41L15.43 8.41Q15.43 7.50 16.13 6.94Q16.83 6.37 18.02 6.37L18.02 6.37Q19.21 6.37 20.19 6.92L20.19 6.92L20.03 8.40Q19.50 8.04 19.03 7.84Q18.56 7.64 18.05 7.64L18.05 7.64Q17.60 7.64 17.35 7.83Q17.11 8.01 17.11 8.34L17.11 8.34Q17.11 8.61 17.25 8.78Q17.40 8.95 17.67 9.08Q17.93 9.21 18.55 9.45L18.55 9.45Q19.57 9.84 20.02 10.31Q20.47 10.78 20.47 11.56L20.47 11.56Q20.47 12.56 19.75 13.10Q19.04 13.65 17.72 13.65L17.72 13.65ZM22.22 16.90L23.77 13.05L20.86 6.51L22.79 6.51L24.58 11.02L26.40 6.51L28.34 6.51L23.95 16.90L22.22 16.90ZM37.03 13.71Q35.55 13.71 34.41 13.08Q33.26 12.45 32.63 11.29Q32.00 10.14 32.00 8.61L32.00 8.61Q32.00 7.10 32.66 5.94Q33.31 4.79 34.46 4.15Q35.62 3.51 37.09 3.51L37.09 3.51Q38.50 3.51 39.62 4.09L39.62 4.09L39.42 5.80Q38.82 5.53 38.27 5.38Q37.72 5.24 37.07 5.24L37.07 5.24Q35.57 5.24 34.77 6.16Q33.96 7.08 33.96 8.61L33.96 8.61Q33.96 10.14 34.76 11.06Q35.55 11.98 37.03 11.98L37.03 11.98Q37.69 11.98 38.24 11.84Q38.79 11.70 39.42 11.42L39.42 11.42L39.62 13.13Q38.40 13.71 37.03 13.71L37.03 13.71ZM42.36 13.65Q41.50 13.65 40.91 13.08Q40.33 12.52 40.33 11.55L40.33 11.55Q40.33 10.64 40.99 10.09Q41.65 9.53 42.55 9.30Q43.44 9.07 44.27 9.04L44.27 9.04Q44.24 8.43 43.95 8.16Q43.67 7.90 43.01 7.90L43.01 7.90Q42.55 7.90 42.10 8.02Q41.66 8.15 41.09 8.43L41.09 8.43L40.94 7.01Q42.21 6.40 43.48 6.40L43.48 6.40Q44.72 6.40 45.37 7.07Q46.02 7.74 46.02 9.21L46.02 9.21L46.02 11.10Q46.02 11.63 46.07 11.87Q46.12 12.10 46.23 12.16Q46.35 12.22 46.63 12.22L46.63 12.22L46.86 12.22L46.70 13.65L46.07 13.65Q45.50 13.65 45.11 13.43Q44.72 13.22 44.51 12.84L44.51 12.84Q44.17 13.22 43.59 13.43Q43.01 13.65 42.36 13.65L42.36 13.65ZM43.09 12.32Q43.36 12.32 43.69 12.19Q44.03 12.05 44.28 11.82L44.28 11.82L44.28 10.22Q43.44 10.26 42.80 10.58Q42.15 10.91 42.15 11.48L42.15 11.48Q42.15 11.91 42.38 12.12Q42.60 12.32 43.09 12.32L43.09 12.32ZM49.62 13.65Q48.72 13.65 48.27 13.14Q47.82 12.63 47.82 11.82L47.82 11.82L47.82 3.01L49.56 3.01L49.56 11.10Q49.56 11.66 49.62 11.89Q49.69 12.12 49.85 12.17Q50.01 12.22 50.40 12.22L50.40 12.22L50.25 13.65L49.62 13.65ZM54.68 13.65Q53.52 13.65 52.69 13.17Q51.86 12.68 51.44 11.86Q51.02 11.03 51.02 10.02L51.02 10.02Q51.02 9.00 51.44 8.17Q51.86 7.34 52.70 6.85Q53.54 6.37 54.74 6.37L54.74 6.37Q55.82 6.37 56.62 6.82L56.62 6.82L56.48 8.22Q55.72 7.83 54.91 7.83L54.91 7.83Q53.91 7.83 53.35 8.43Q52.79 9.03 52.79 10.02L52.79 10.02Q52.79 10.98 53.37 11.60Q53.94 12.22 54.89 12.22L54.89 12.22Q55.69 12.22 56.49 11.76L56.49 11.76L56.64 13.23Q56.27 13.43 55.76 13.54Q55.24 13.65 54.68 13.65L54.68 13.65ZM62.17 6.51L63.91 6.51L63.91 13.51L62.29 13.51L62.26 13.09Q61.94 13.33 61.52 13.49Q61.10 13.65 60.70 13.65L60.70 13.65Q59.15 13.65 58.44 12.75Q57.74 11.86 57.74 10.28L57.74 10.28L57.74 6.51L59.47 6.51L59.47 10.28Q59.47 11.26 59.80 11.72Q60.13 12.19 60.86 12.19L60.86 12.19Q61.67 12.19 62.17 11.61L62.17 11.61L62.17 6.51ZM67.33 13.65Q66.43 13.65 65.98 13.14Q65.53 12.63 65.53 11.82L65.53 11.82L65.53 3.01L67.27 3.01L67.27 11.10Q67.27 11.66 67.33 11.89Q67.40 12.12 67.56 12.17Q67.72 12.22 68.11 12.22L68.11 12.22L67.96 13.65L67.33 13.65ZM70.73 13.65Q69.86 13.65 69.28 13.08Q68.70 12.52 68.70 11.55L68.70 11.55Q68.70 10.64 69.36 10.09Q70.01 9.53 70.91 9.30Q71.81 9.07 72.63 9.04L72.63 9.04Q72.60 8.43 72.32 8.16Q72.03 7.90 71.37 7.90L71.37 7.90Q70.91 7.90 70.47 8.02Q70.03 8.15 69.45 8.43L69.45 8.43L69.30 7.01Q70.57 6.40 71.85 6.40L71.85 6.40Q73.08 6.40 73.73 7.07Q74.38 7.74 74.38 9.21L74.38 9.21L74.38 11.10Q74.38 11.63 74.43 11.87Q74.48 12.10 74.60 12.16Q74.72 12.22 75.00 12.22L75.00 12.22L75.22 12.22L75.07 13.65L74.44 13.65Q73.86 13.65 73.47 13.43Q73.08 13.22 72.87 12.84L72.87 12.84Q72.53 13.22 71.95 13.43Q71.37 13.65 70.73 13.65L70.73 13.65ZM71.46 12.32Q71.72 12.32 72.06 12.19Q72.39 12.05 72.65 11.82L72.65 11.82L72.65 10.22Q71.81 10.26 71.16 10.58Q70.52 10.91 70.52 11.48L70.52 11.48Q70.52 11.91 70.74 12.12Q70.97 12.32 71.46 12.32L71.46 12.32ZM78.36 13.65Q77.43 13.65 76.96 13.11Q76.48 12.57 76.48 11.82L76.48 11.82L76.48 7.94L75.49 7.94L75.64 6.51L76.48 6.51L76.48 4.97L78.22 4.79L78.22 6.51L79.76 6.51L79.76 7.94L78.22 7.94L78.22 11.10Q78.22 11.66 78.28 11.88Q78.34 12.10 78.55 12.16Q78.75 12.22 79.28 12.22L79.28 12.22L79.76 12.22L79.60 13.65L78.36 13.65ZM84.07 13.65Q82.96 13.65 82.15 13.16Q81.34 12.67 80.91 11.84Q80.47 11.02 80.47 10.02L80.47 10.02Q80.47 9.03 80.91 8.19Q81.34 7.35 82.15 6.86Q82.96 6.37 84.07 6.37L84.07 6.37Q85.18 6.37 85.99 6.86Q86.80 7.35 87.23 8.19Q87.67 9.03 87.67 10.02L87.67 10.02Q87.67 11.02 87.23 11.84Q86.80 12.67 85.99 13.16Q85.18 13.65 84.07 13.65L84.07 13.65ZM84.07 12.22Q84.92 12.22 85.41 11.62Q85.89 11.02 85.89 10.02L85.89 10.02Q85.89 9.02 85.41 8.41Q84.92 7.80 84.07 7.80L84.07 7.80Q83.22 7.80 82.73 8.41Q82.25 9.02 82.25 10.02L82.25 10.02Q82.25 11.02 82.73 11.62Q83.22 12.22 84.07 12.22L84.07 12.22ZM88.87 13.51L88.87 6.51L90.50 6.51L90.54 7.25Q90.85 6.90 91.33 6.64Q91.81 6.37 92.34 6.37L92.34 6.37Q92.51 6.37 92.65 6.40L92.65 6.40L92.53 8.11Q92.26 8.04 91.92 8.04L91.92 8.04Q91.49 8.04 91.13 8.24Q90.76 8.44 90.61 8.74L90.61 8.74L90.61 13.51L88.87 13.51Z"></path></g><defs data-v-fde0c5aa=""><linearGradient data-v-fde0c5aa="" gradientTransform="rotate(25)" id="fb4e5a9a-61dd-4db1-886a-601be0e1be64" x1="0%" y1="0%" x2="100%" y2="0%"><stop data-v-fde0c5aa="" offset="0%" stop-color="#0015D6" stop-opacity="1"></stop><stop data-v-fde0c5aa="" offset="100%" stop-color="#0989FB" stop-opacity="1"></stop></linearGradient></defs><g data-v-fde0c5aa="" id="86264575-8499-4f77-9ba9-94cdfd068b73" stroke="none" fill="url(#fb4e5a9a-61dd-4db1-886a-601be0e1be64)" transform="matrix(1.1990249703423872,0,0,1.1990249703423872,40,130.8156004745218)"><circle cx="16" cy="16.021" r="8.066"></circle><path d="M32 0H0v32h32V0zM16 26.086c-5.551 0-10.066-4.516-10.066-10.065 0-5.55 4.516-10.066 10.066-10.066 5.55 0 10.065 4.516 10.065 10.066.001 5.55-4.515 10.065-10.065 10.065z"></path></g><!----></svg>